<svg xmlns="http://www.w3.org/2000/svg" xmlns:xlink="http://www.w3.org/1999/xlink" viewBox="0,0,256,256" width="500px" height="500px" fill-rule="nonzero"><g fill="#d6d6d6" fill-rule="nonzero" stroke="none" stroke-width="1" stroke-linecap="butt" stroke-linejoin="miter" stroke-miterlimit="10" stroke-dasharray="" stroke-dashoffset="0" font-family="none" font-weight="none" font-size="none" text-anchor="none" style="mix-blend-mode: normal"><g transform="scale(5.12,5.12)"><path d="M28.3457,0.94922c-0.78371,-0.01973 -1.55772,0.00936 -2.31641,0.08203c-5.9093,0.566 -10.88893,3.67303 -13.23828,7.34766c-4.58214,1.63804 -6.88152,5.17593 -7.91211,8.26172c-1.05692,3.16463 -0.91602,5.94727 -0.91602,5.94727c0.02026,0.40942 0.28831,0.76502 0.67632,0.89723c0.38801,0.13221 0.81742,0.01425 1.08344,-0.29762c0,0 0.64786,-0.76 0.86914,-1.01953c-0.49274,6.53732 1.33966,11.72578 3.75586,15.30273c1.40511,2.08013 2.94787,3.65382 4.23633,4.74414c0.64423,0.54516 1.22455,0.97066 1.70117,1.2793c0.2351,0.15224 0.42541,0.27234 0.60742,0.37109l-0.87695,4.96094c-0.07471,0.35707 0.05094,0.7265 0.32786,0.96398c0.27692,0.23748 0.66119,0.30534 1.0027,0.17706c0.34151,-0.12827 0.58608,-0.43232 0.63819,-0.79339l1.33594,-7.55859c0.5628,1.17693 1.20301,2.23854 1.94922,3.0957c0.78563,0.90224 1.71946,1.65369 2.73047,2.2793c-0.00002,0.00326 -0.00002,0.00651 0,0.00977v2c-0.0051,0.36064 0.18438,0.69608 0.49587,0.87789c0.3115,0.18181 0.69676,0.18181 1.00825,0c0.3115,-0.18181 0.50097,-0.51725 0.49587,-0.87789v-0.99219c1.94894,0.77868 4.07406,1.10092 6.11523,0.89063c3.92567,-0.40445 7.59223,-2.94838 8.55273,-7.76563c0.717,-3.59617 -0.0053,-6.27878 -0.72656,-9.42969c-0.12475,-0.545 -0.24473,-1.1399 -0.36523,-1.72852c2.97649,-2.56568 3.63797,-6.28664 3.53711,-9.29297c-0.09875,-2.94364 -0.84262,-5.13677 -0.9707,-5.50391c1.87082,-2.26335 2.7793,-4.2793 2.7793,-4.2793c0.11749,-0.32395 0.05993,-0.68557 -0.15234,-0.95703c-4.94947,-6.34675 -10.93785,-8.85409 -16.42383,-8.99219zM28.24414,2.94727c4.79108,0.10165 9.98616,2.22295 14.54102,7.80859c-0.54589,1.307 -3.52213,7.22817 -12.15234,8.90039c0.62677,-1.54325 1.37418,-3.77559 1.36719,-6.66016c-0.00124,-0.32482 -0.16016,-0.6288 -0.42617,-0.81521c-0.26601,-0.1864 -0.60599,-0.23201 -0.91172,-0.12229c-3.3998,1.22345 -11.00586,4.00195 -11.00586,4.00195c-0.49149,0.18042 -0.76065,0.70937 -0.61719,1.21289c0,0 0.46949,1.65004 0.58789,3.78125c0.10055,1.80982 -0.22022,3.81232 -1.05469,5.4375c-0.40737,-0.21934 -0.67899,-0.26492 -1.49023,-1.07617c-1.24643,-1.24644 -2.62291,-3.27638 -3.0918,-6.55859c-0.0782,-0.54689 -0.58494,-0.92684 -1.13184,-0.84863c-0.54689,0.0782 -0.92684,0.58494 -0.84863,1.13184c0.17527,1.22691 0.47606,2.30624 0.8457,3.27148c-0.98127,0.74511 -1.59751,1.77184 -1.83008,2.85742c-0.27522,1.28467 -0.07191,2.63243 0.4375,3.86914c0.92116,2.23632 2.92073,4.14228 5.43359,4.55469c0.27499,1.44982 0.62042,2.8948 1.03711,4.27734l-0.66602,3.76953c-0.38233,-0.2536 -0.85411,-0.59677 -1.39062,-1.05078c-1.16373,-0.98478 -2.58446,-2.43315 -3.87109,-4.33789c-2.57328,-3.80949 -4.6366,-9.4059 -3.16016,-17.02539c0.08634,-0.44582 -0.13852,-0.89385 -0.54757,-1.09104c-0.40905,-0.19719 -0.89962,-0.09404 -1.19462,0.2512c-0.38213,0.44797 -0.40804,0.47948 -0.76367,0.89648c0.1222,-0.69493 0.16721,-1.30591 0.43555,-2.10937c0.92933,-2.78262 2.80779,-5.79059 6.95313,-7.14648c0.2301,-0.07523 0.4251,-0.23137 0.54883,-0.43945c1.81941,-3.05984 6.48715,-6.14165 11.94141,-6.66406c0.66491,-0.06369 1.34095,-0.09069 2.02539,-0.07617zM29.8457,14.48242c-0.37363,3.22144 -1.73437,6.05664 -1.73437,6.05664c-0.16967,0.32695 -0.14588,0.7207 0.06192,1.02484c0.2078,0.30414 0.56596,0.46944 0.93222,0.43023c0.37074,-0.03953 0.71394,-0.10522 1.06836,-0.16016c0.25908,2.89183 1.28454,5.17473 2.52148,7.35352c-2.06622,1.32537 -4.30078,0.45508 -4.30078,0.45508c-0.32902,-0.14485 -0.71046,-0.10197 -0.99911,0.11231c-0.28865,0.21428 -0.44008,0.567 -0.39664,0.92386c0.04344,0.35686 0.27506,0.66295 0.60669,0.80173c0,0 3.95471,1.66494 7.06836,-1.17969c0.35237,-0.3217 0.42842,-0.84751 0.18164,-1.25586c-1.42943,-2.36966 -2.46983,-4.56342 -2.70508,-7.51758c-0.00196,-0.02943 -0.00522,-0.05875 -0.00977,-0.08789c1.79677,-0.45325 3.36041,-1.09665 4.71484,-1.85547c-0.2147,4.11121 0.10097,7.23059 0.55664,9.76563c-0.11313,0.3371 -0.03876,0.70891 0.19531,0.97656c0.12678,0.62658 0.25345,1.2591 0.38281,1.82422c0.73074,3.19235 1.3478,5.42697 0.7168,8.5918c-0.80349,4.02976 -3.54479,5.83096 -6.79687,6.16602c-3.25208,0.33505 -6.95112,-1.00426 -9.13281,-3.50977c-1.83542,-2.10832 -3.34267,-6.45936 -4.08594,-10.7168c-0.08187,-0.46986 -0.48414,-0.81653 -0.96094,-0.82812c-1.88547,-0.0453 -3.6523,-1.61773 -4.41797,-3.47656c-0.38284,-0.92942 -0.50237,-1.89434 -0.33203,-2.68945c0.11627,-0.5427 0.35741,-1.00674 0.76172,-1.4043c0.59995,1.04392 1.2713,1.89435 1.92578,2.54883c1.50357,1.50356 2.96094,2.0957 2.96094,2.0957c0.41988,0.16822 0.9004,0.03367 1.17188,-0.32812c1.732,-2.30933 1.95387,-5.28746 1.82227,-7.65625c-0.10242,-1.84352 -0.36813,-2.69549 -0.51562,-3.2832c0.79471,-0.29025 5.30895,-1.93591 8.73828,-3.17773zM27,16.39844c-0.22579,0.00071 -0.44469,0.07781 -0.62109,0.21875l-2.23828,1.72852c-0.29403,0.21446 -0.44836,0.57171 -0.40295,0.93279c0.04541,0.36109 0.28338,0.66901 0.62135,0.80399c0.33797,0.13498 0.72259,0.07571 1.00425,-0.15475l2.23828,-1.72852c0.34513,-0.2583 0.4859,-0.70869 0.34932,-1.11756c-0.13659,-0.40887 -0.5198,-0.68422 -0.95088,-0.68322zM40.55469,16.89063c0.24336,0.94607 0.50612,2.23701 0.56055,3.85938c0.07723,2.302 -0.33298,4.82053 -1.9707,6.79297c-0.33368,-2.3444 -0.50637,-5.14884 -0.24219,-8.83203c0.01202,-0.14084 -0.00595,-0.28263 -0.05273,-0.41602c0.61683,-0.45714 1.19272,-0.92628 1.70508,-1.4043zM27,23c-0.55228,0 -1,0.44772 -1,1c0,0.55228 0.44772,1 1,1c0.55228,0 1,-0.44772 1,-1c0,-0.55228 -0.44772,-1 -1,-1zM35,23c-0.55228,0 -1,0.44772 -1,1c0,0.55228 0.44772,1 1,1c0.55228,0 1,-0.44772 1,-1c0,-0.55228 -0.44772,-1 -1,-1zM35.98047,33.99023c-0.2598,0.00774 -0.50638,0.11632 -0.6875,0.30273l-1.64844,1.64844c-3.44159,-0.69834 -5.91454,-0.13291 -6.48242,0.02148l-3.71484,-1.85742c-0.31959,-0.15987 -0.7002,-0.13706 -0.99842,0.05981c-0.29822,0.19688 -0.46874,0.53791 -0.44731,0.89462c0.02143,0.3567 0.23155,0.67487 0.5512,0.83463l4,2c0.23038,0.11497 0.49622,0.13665 0.74219,0.06055c0,0 2.85391,-0.87805 6.46484,0.01563c0.34014,0.08412 0.6995,-0.01591 0.94727,-0.26367l2,-2c0.29576,-0.28749 0.38469,-0.72707 0.22393,-1.10691c-0.16075,-0.37985 -0.53821,-0.62204 -0.9505,-0.60988zM32.97461,39c-0.02348,0.00048 -0.04693,0.00178 -0.07031,0.00391c0,0 -0.73907,0.07086 -1.63477,0.23828c-0.89569,0.16742 -1.93729,0.38937 -2.78711,0.90234c-0.31426,0.1808 -0.50606,0.51751 -0.50129,0.88004c0.00477,0.36253 0.20537,0.69408 0.52428,0.86654c0.31891,0.17246 0.70618,0.15883 1.01217,-0.03564c0.36119,-0.21802 1.31953,-0.49666 2.12109,-0.64648c0.80156,-0.14983 1.45703,-0.21289 1.45703,-0.21289c0.54239,-0.04429 0.94982,-0.51414 0.91687,-1.05734c-0.03295,-0.5432 -0.49419,-0.96035 -1.03796,-0.93875z"></path></g></g></svg>